<svg version="1.1" viewBox="0 0 24 24" xmlns="http://www.w3.org/2000/svg">
  <g stroke-linecap="round" stroke-linejoin="round" stroke-width="2">
    <path d="m10.6348 16.0684a1 1 0 0 0-0.550782 0.53125 1 1 0 0 0 0.515625 1.31641c0.892232 0.389401 1.90855 0.389401 2.80078 0a1 1 0 0 0 0.515625-1.31641 1 1 0 0 0-1.31641-0.515625c-0.383019 0.167164-0.816199 0.167164-1.19922 0a1 1 0 0 0-0.765625-0.01563z" color="#000000" style="-inkscape-stroke:none"/>
    <path d="m12 2c-2.49859 0-4.57236 0.62789-6.10352 1.77344-1.52944 1.14427-2.47793 2.80667-2.74609 4.67383-0.504419 3.26556 0.271377 6.60145 2.16602 9.30859 0.920807 1.34341 2.10991 2.48231 3.49219 3.34375a1.0001 1.0001 0 0 0 0.013672 0.0098c1.96849 1.18156 4.39089 1.18156 6.35938 0a1.0001 1.0001 0 0 0 0.01367-0.0098c1.38185-0.861172 2.5715-1.99893 3.49219-3.3418l2e-3 -2e-3c1.88644-2.70937 2.66063-6.03861 2.16597-9.30269-0.266921-1.87017-1.21684-3.5362-2.74805-4.68164-1.5312-1.14544-3.605-1.77148-6.10352-1.77148zm0 2h0.0039c2.16547 0 3.78896 0.537238 4.90625 1.37305s1.76772 1.96845 1.9668 3.36328a1.0001 1.0001 0 0 0 0 0.00977c0.420229 2.76146-0.235482 5.57713-1.83203 7.86914a1.0001 1.0001 0 0 0-0.0039 0.0059c-0.763539 1.11508-1.7502 2.05966-2.89648 2.77539-1.35936 0.812553-2.9258 0.812553-4.28516 0-1.14629-0.715727-2.13295-1.66031-2.89648-2.77539a1.0001 1.0001 0 0 0-0.00586-0.0078c-1.60258-2.28753-2.25773-5.10524-1.83008-7.86529a1.0001 1.0001 0 0 0 0.00195-0.011719c0.199065-1.39429 0.847504-2.52538 1.96485-3.36133s2.74085-1.375 4.90625-1.375zm-4 6a1 1 0 0 0-0.707031 0.292969 1 1 0 0 0 0 1.41406l2 2a1 1 0 0 0 1.41406 0 1 1 0 0 0 0-1.41406l-2-2a1 1 0 0 0-0.707031-0.292969zm7.29297 0.292969-2 2a1 1 0 0 0 0 1.41406 1 1 0 0 0 1.41406 0l2-2a1 1 0 0 0 0-1.41406 1 1 0 0 0-1.41406 0z" color="#000000" style="-inkscape-stroke:none"/>
  </g>
</svg>
