<svg id="svg4" version="1.1" viewBox="0 0 512 512" xmlns="http://www.w3.org/2000/svg">
  <path id="path2442" d="m96.0452 56.0565a39.9887 39.9887 0 0 0-28.3045 11.6842 39.9887 39.9887 0 0 0 0 56.609l131.65 131.65-131.65 131.65a39.9887 39.9887 0 0 0 0 56.609 39.9887 39.9887 0 0 0 56.609 0l131.65-131.65 131.65 131.65a39.9887 39.9887 0 0 0 56.609 0 39.9887 39.9887 0 0 0 0-56.609l-131.65-131.65 131.65-131.65a39.9887 39.9887 0 0 0 0-56.609 39.9887 39.9887 0 0 0-56.609 0l-131.65 131.65-131.65-131.65a39.9887 39.9887 0 0 0-28.3045-11.6842z" color="#000000" style="-inkscape-stroke:none"/>
</svg>
