<svg version="1.1" viewBox="0 0 512 512" xmlns="http://www.w3.org/2000/svg">
  <path d="m42.7 16c-7.4 0-14 3-18.8 7.9-4.9 4.8-7.9 11.5-7.9 18.8 0 7.4 3 14.2 7.9 19l195.1 194.3-195.1 194c-4.9 6-7.9 12-7.9 20 0 7 3 15 7.9 19 4.8 4 11.5 7 18.8 7 7.4 0 14.2-3 19-7l194.3-194 194 194c6 4 12 7 20 7 7 0 15-3 19-7s7-12 7-19c0-8-3-14-7-20l-194-194 194-194.3c4-4.8 7-11.6 7-19 0-7.3-3-14-7-18.8-4-4.9-12-7.9-19-7.9-8 0-14 3-20 7.9l-194 195.1-194.3-195.1c-4.8-4.9-11.6-7.9-18.8-7.9h-0.2z" stroke-width="1.0012"/>
</svg>
