<svg fill="none" version="1.1" viewBox="0 0 512 512" xmlns="http://www.w3.org/2000/svg">
  <path d="m422 103c-30.4-14.2-63.3-24.5-97.6-30.4-0.3-0.0097-0.6 0.0466-0.875 0.165-0.279 0.119-0.524 0.296-0.724 0.521-4.12 7.54-8.91 17.4-12.1 24.9-36.4-5.49-73.3-5.49-110 0-3.2-7.77-8-17.4-12.3-24.9-0.23-0.457-0.915-0.686-1.6-0.686-34.3 5.94-67 16.2-97.6 30.4-0.227 0-0.457 0.228-0.685 0.457-62.2 93-79.3 184-70.9 273 0 0.457 0.227 0.915 0.685 1.15 41.1 30.2 80.7 48.5 120 60.6 0.688 0.227 1.37 0 1.6-0.457 9.15-12.6 17.4-25.8 24.5-39.8 0.457-0.912 0-1.83-0.912-2.06-13-5.03-25.4-11-37.5-17.8-0.912-0.457-0.912-1.83-0.227-2.51 2.51-1.83 5.03-3.89 7.54-5.72 0.457-0.457 1.14-0.457 1.6-0.227 78.6 35.9 163 35.9 241 0 0.457-0.23 1.15-0.23 1.6 0.227 2.51 2.06 5.03 3.89 7.54 5.94 0.915 0.685 0.915 2.06-0.23 2.51-11.9 7.09-24.5 12.8-37.5 17.8-0.915 0.227-1.14 1.37-0.915 2.06 7.32 13.9 15.5 27.2 24.5 39.8 0.688 0.227 1.37 0.454 2.06 0.227 39.3-12.1 78.9-30.4 120-60.6 0.457-0.23 0.685-0.688 0.685-1.15 10.1-104-16.7-193-70.9-273-0.227-0.229-0.457-0.457-0.915-0.457zm-246 219c-23.5 0-43.2-21.7-43.2-48.5 0-26.7 19.2-48.5 43.2-48.5 24.2 0 43.4 21.9 43.2 48.5 0 26.7-19.2 48.5-43.2 48.5zm159 0c-23.5 0-43.2-21.7-43.2-48.5 0-26.7 19.2-48.5 43.2-48.5 24.2 0 43.4 21.9 43.2 48.5 0 26.7-19 48.5-43.2 48.5z" fill="#fff" fill-opacity=".5" stroke-width="30.3"/>
</svg>
