<svg id="svg8" version="1.1" viewBox="0 0 24 24" xmlns="http://www.w3.org/2000/svg">
  <path id="path4" d="m4 2c-1.64501 0-3 1.35499-3 3v13c0 1.64501 1.35499 3 3 3h6a1 1 0 0 0 1-1 1 1 0 0 0-1-1h-6c-0.564129 0-1-0.435871-1-1v-13c0-0.564129 0.435871-1 1-1h3.90039a1.0001 1.0001 0 0 0 0.00977 0c0.341098-0.00334 0.656154 0.164321 0.84375 0.449219a1.0001 1.0001 0 0 0 0.00781 0.00977l0.802732 1.1914c0.554222 0.841575 1.49818 1.34944 2.50586 1.34961h7.92969c0.564129 0 1 0.435871 1 1v2a1 1 0 0 0 1 1 1 1 0 0 0 1-1v-2c0-1.64501-1.35499-3-3-3h-7.92969c-0.337496-5.56e-5 -0.650315-0.167354-0.835938-0.449219a1.0001 1.0001 0 0 0-0.0059-0.00977l-0.802694-1.1914c-7.94e-4 -0.00121-0.0031-7.486e-4 -0.0039-0.00195-0.560342-0.848299-1.51446-1.35763-2.53126-1.34766zm17.293 11.293-4.5 4.5a1 1 0 0 0 0 1.41406 1 1 0 0 0 1.41406 0l2.79297-2.79297 0.292969 0.292969a1 1 0 0 0 1.41406 0 1 1 0 0 0 0-1.41406l-0.292969-0.292969 0.292969-0.292969a1 1 0 0 0 0-1.41406 1 1 0 0 0-1.41406 0zm-5.29297 3.70703c-1.64501 0-3 1.35499-3 3s1.35499 3 3 3 3-1.35499 3-3-1.35499-3-3-3zm0 2c0.564129 0 1 0.435871 1 1s-0.435871 1-1 1-1-0.435871-1-1 0.435871-1 1-1z" color="#000000" style="-inkscape-stroke:none"/>
</svg>
