<svg fill="none" version="1.1" viewBox="0 0 13.4 12.8" xmlns="http://www.w3.org/2000/svg">
  <path d="m6.72 0c-0.882 0-1.76 0.17-2.57 0.499-0.815 0.329-1.56 0.812-2.18 1.42-1.26 1.23-1.97 2.9-1.97 4.63 0 2.9 1.93 5.36 4.59 6.23 0.336 0.0524 0.443-0.151 0.443-0.328v-1.11c-1.86 0.393-2.26-0.878-2.26-0.878-0.309-0.76-0.745-0.964-0.745-0.964-0.611-0.406 0.047-0.393 0.047-0.393 0.672 0.0459 1.03 0.675 1.03 0.675 0.584 0.996 1.57 0.701 1.95 0.544 0.0604-0.426 0.235-0.714 0.423-0.878-1.49-0.164-3.06-0.728-3.06-3.23 0-0.728 0.255-1.31 0.692-1.78-0.0672-0.164-0.302-0.846 0.0672-1.73 0 0 0.564-0.177 1.85 0.669 0.531-0.144 1.11-0.216 1.68-0.216 0.571 0 1.15 0.0721 1.68 0.216 1.28-0.846 1.85-0.669 1.85-0.669 0.369 0.885 0.134 1.57 0.0672 1.73 0.436 0.465 0.692 1.05 0.692 1.78 0 2.5-1.57 3.05-3.07 3.22 0.242 0.203 0.463 0.603 0.463 1.21v1.8c0 0.177 0.107 0.387 0.45 0.328 2.67-0.878 4.59-3.33 4.59-6.23 0-0.861-0.174-1.71-0.511-2.51s-0.832-1.52-1.46-2.13c-0.624-0.609-1.36-1.09-2.18-1.42-0.815-0.329-1.69-0.499-2.57-0.499z" fill="#fff" fill-opacity=".5"/>
</svg>
