<svg version="1.1" viewBox="0 0 512 512" xmlns="http://www.w3.org/2000/svg">
  <path d="m147.83 35.721c-62.435-2.5782-121.21 46.78-130.02 108.48-9.4069 52.18 16.18 102.24 46.297 142.98 41.392 58.462 97.802 103.66 149.77 152.2 13.871 12.49 28.09 24.586 42.123 36.893 71.262-65.64 147.37-127.52 205.54-205.69 38.268-51.006 49.258-128.28 9.5408-181.6-27.973-39.961-79.074-59.355-126.78-52.031-34.548 3.9303-66.371 22.754-88.298 49.461-26.194-32.342-66.441-51.568-108.17-50.699zm0 48.449c36.014-0.16515 73.051 21.783 85.631 56.34h45.078c20.317-56.589 103.49-76.055 145.91-32.68 34.237 32.236 28.364 86.976 5.3192 123.87-29.353 45.679-69.428 83.248-108.32 120.67-21.563 20.17-43.744 39.677-65.447 59.684-59.351-54.638-122.28-107.14-169.36-173.26-24.583-35.77-34.914-89.1-4.7713-124.86 15.965-19.523 40.87-30.277 65.958-29.769z" image-rendering="auto"/>
</svg>
