<svg version="1.1" viewBox="0 0 512 512" xmlns="http://www.w3.org/2000/svg">
  <g transform="matrix(.96 0 0 .96004 39.227 10.846)" stroke-linecap="round">
    <path d="m340.02 428.31h109.97" color="#000000" stroke-width="40" style="-inkscape-stroke:none"/>
    <path d="m394.87 483.32v-109.97" color="#000000" stroke-width="40" style="-inkscape-stroke:none"/>
    <path d="m303.91 5.3767c-32.86 0.11444-65.003 9.6648-92.051 26.623-56.891 35.669-91.541 106.16-74.258 182.75l-140.45 140.49c-13.642 13.638-21.342 32.156-21.346 51.445v47.951c0 27.662 23.049 50.713 50.711 50.713h66.236c27.662 0 50.711-23.051 50.711-50.713v-15.523h15.523c27.662 0 50.713-23.049 50.713-50.711v-16.086c18.252-0.72307 35.722-7.8175 48.684-20.783l8.0215-7.9785c76.589 17.283 147.08-17.365 182.75-74.256 38.762-61.824 38.915-150.17-24.105-213.2-31.51-31.51-69.343-47.196-107.03-50.193-4.7108-0.37472-9.4209-0.55151-14.115-0.53516zm1.6192 56.207c2.307 0.0091 4.6187 0.09255 6.9336 0.25586 24.692 1.742 49.721 12.379 72.1 34.758 44.758 44.758 42.582 100.04 16.084 142.3-26.498 42.264-75.259 68.237-135.1 47.391a28.625 28.625 0 0 0-29.668 6.8125l-17.938 17.982c-2.9204 2.9212-6.8655 4.5265-10.996 4.5274h-3.7949c-27.662 0-50.713 23.051-50.713 50.713v15.523h-15.523c-27.662 0-50.711 23.049-50.711 50.711v15.523h-53.127v-41.396c8.83e-4 -4.1306 1.6061-8.0757 4.5273-10.996l150.45-150.41a28.625 28.625 0 0 0 6.8144-29.668c-20.846-59.843 5.1262-108.6 47.391-135.1 19.151-12.007 40.969-19.015 63.27-18.928zm19.051 55.324c-21.566 0-39.672 18.106-39.672 39.672s18.106 39.672 39.672 39.672 39.672-18.106 39.672-39.672c0-21.565-18.106-39.672-39.672-39.672zm0 22.078c9.3719 0 17.594 8.2218 17.594 17.594 0 9.3719-8.2218 17.594-17.594 17.594-9.3719 0-17.594-8.2218-17.594-17.594 0-9.3719 8.2218-17.594 17.594-17.594zm0 6.5547a11.039 11.039 0 0 0-11.039 11.039 11.039 11.039 0 0 0 11.039 11.039 11.039 11.039 0 0 0 11.039-11.039 11.039 11.039 0 0 0-11.039-11.039zm70.299 207.81a20 20 0 0 0-20 20v34.955h-34.859a20 20 0 0 0-20 20 20 20 0 0 0 20 20h34.859v35.014a20 20 0 0 0 20 20 20 20 0 0 0 20-20v-35.014h35.109a20 20 0 0 0 20-20 20 20 0 0 0-20-20h-35.109v-34.955a20 20 0 0 0-20-20z" color="#000000" style="-inkscape-stroke:none"/>
  </g>
</svg>