<svg fill="none" version="1.1" viewBox="0 0 512 512" xmlns="http://www.w3.org/2000/svg">
  <path d="m287 256c0.106 36.1-14.1 70.8-39.5 96.5-25.4 25.6-59.9 40.1-95.9 40.3-36-0.161-70.5-14.6-95.9-40.3-25.4-25.6-39.6-60.3-39.5-96.5-0.106-36.1 14.1-70.8 39.5-96.5 25.4-25.6 59.9-40.1 95.9-40.3 36 0.159 70.5 14.6 95.9 40.3 25.4 25.6 39.6 60.3 39.5 96.5zm148 0c0 71-30.2 129-67.6 129-37.4 0-67.8-57.7-67.8-129 0-71 30.4-129 67.8-129 37.4 0 67.6 57.7 67.6 129zm60.8 0c0 63.6-10.6 115-23.8 115s-23.8-51.7-23.8-115c0-63.6 10.6-115 23.8-115s23.8 51.7 23.8 115z" fill="#000" stroke-width="30.3"/>
</svg>
