<svg id="svg5154" version="1.1" viewBox="0 0 512 512" xmlns="http://www.w3.org/2000/svg">
  <path id="path5152" d="m257.135 437.56q-76.0284 0-129.362-52.766-53.3333-52.766-53.3333-128.794v-3.97163l-20.4255 20.4255q-6.24113 6.24114-15.8865 6.24114t-15.8865-6.24114q-6.24114-6.24113-6.24114-15.8865t6.24114-15.8865l59.0071-59.0071q6.80851-6.80851 15.8865-6.80851 9.07802 0 15.8865 6.80851l59.0071 59.0071q6.24113 6.24114 6.24113 15.8865t-6.24113 15.8865q-6.24114 6.24114-15.8865 6.24114t-15.8865-6.24114l-20.4255-20.4255v3.97163q0 56.7376 40.0113 96.4539 40.0114 39.7163 97.2936 39.7163 9.07802 0 17.8837-1.13476 8.80567-1.13475 17.2936-3.97163 9.64539-2.83688 18.156 0.56738 8.51063 3.40425 13.0496 11.9149 4.53901 9.07802 0.86241 17.861-3.67659 8.78297-13.3447 11.6426-13.0496 4.53901-26.6667 6.53617-13.617 1.99716-27.234 1.97447m-2.2695-317.73q-9.07802 0-17.861 1.13475-8.78298 1.13475-17.3163 3.97163-9.64539 2.83688-18.4284-0.56737-8.78297-3.40426-13.3447-11.9149-4.5617-8.51064-0.86241-17.2936 3.69929-8.78298 12.7773-11.6426 13.617-4.53901 27.234-6.80851 13.617-2.2695 27.8014-2.2695 76.0284 0 129.362 52.766 53.3333 52.766 53.3333 128.794v3.97163l20.4255-20.4255q6.24113-6.24113 15.8865-6.24113t15.8865 6.24113q6.24113 6.24114 6.24113 15.8865t-6.24113 15.8865l-59.0071 59.0071q-6.80851 6.80852-15.8865 6.80852-9.07802 0-15.8865-6.80852l-59.0071-59.0071q-6.24113-6.24113-6.24113-15.8865t6.24113-15.8865q6.24114-6.24113 15.8865-6.24113t15.8865 6.24113l20.4255 20.4255v-3.97163q0-56.7376-40.0113-96.4539-40.0114-39.7163-97.2936-39.7163" fill="currentColor" stroke-width="22.695"/>
</svg>
