<svg version="1.1" viewBox="0 0 512 512" xmlns="http://www.w3.org/2000/svg">
  <path d="m256 344q37 0 63-25 25-27 25-63t-25-62q-26-26-63-26-36 0-62 26t-26 62 26 63q26 25 62 25zm187-63 53 41q7 6 2 16l-51 87q-4 8-15 5l-62-25q-25 18-42 25l-9 66q-3 10-12 10h-102q-9 0-11-10l-10-66q-22-10-42-25l-61.7 25q-10.8 3-15.6-5l-50.4-87q-5.83-10 2.3-16l52.9-41q-1.2-9-1.2-25t1.2-25l-52.9-41q-8.13-6-2.3-16l50.4-87.3q4.8-7.8 15.6-4.5l61.7 24.8q25-17.7 42-24.8l10-65.7q2-10.5 11-10.5h102q9 0 12 10.5l9 65.7q22 9.7 42 24.8l62-24.8q11-3.3 15 4.5l51 87.3q5 10-2 16l-53 41q1 9 1 25t-1 25z" />
</svg>
