<svg id="svg6904" version="1.1" viewBox="0 0 512 512" xmlns="http://www.w3.org/2000/svg">
  <path id="path6902" d="m255.115 16.3418c-74.9453 0.310235-147.31 35.8439-193.037 98.7852-60.9693 83.9213-60.9568 197.813 0.013672 281.734 60.9705 83.9215 169.282 119.129 267.938 87.0801 98.6558-32.0492 165.608-124.191 165.613-227.926a23.9669 23.9669 0 0 0-23.9668-23.9688 23.9669 23.9669 0 0 0-23.9688 23.9648c-4e-3 83.1579-53.404 156.651-132.488 182.342-79.0838 25.691-165.467-2.38987-214.346-69.668-48.8788-67.2781-48.8877-158.112-0.01367-225.385 48.8742-67.273 135.271-95.3462 214.359-69.6504a23.9669 23.9669 0 0 0 30.1992-15.3887 23.9669 23.9669 0 0 0-15.3887-30.1992c-24.6645-8.01351-49.9323-11.8241-74.9141-11.7207z" color="#000000" fill="currentColor" stroke-linecap="round" stroke-linejoin="round" style="-inkscape-stroke:none"/>
</svg>
