<svg fill="none" version="1.1" viewBox="0 0 15.8 15.8" xmlns="http://www.w3.org/2000/svg">
  <path d="m7.92 0c-4.37 0-7.92 3.55-7.92 7.92 0 4.37 3.55 7.92 7.92 7.92s7.92-3.55 7.92-7.92c0-4.37-3.55-7.92-7.92-7.92zm3.68 5.39c-0.119 1.25-0.634 4.29-0.895 5.7-0.111 0.594-0.333 0.792-0.539 0.816-0.459 0.0397-0.808-0.301-1.25-0.594-0.697-0.46-1.09-0.745-1.77-1.19-0.785-0.515-0.278-0.8 0.174-1.26 0.119-0.119 2.15-1.96 2.19-2.13 5e-3 -0.0252 4e-3 -0.0514-3e-3 -0.0762s-0.019-0.0476-0.037-0.0664c-0.048-0.0396-0.111-0.0238-0.166-0.0158-0.072 0.0158-1.18 0.753-3.34 2.21-0.317 0.214-0.602 0.325-0.856 0.317-0.285-0.0079-0.824-0.158-1.23-0.293-0.499-0.158-0.887-0.246-0.855-0.523 0.016-0.143 0.214-0.285 0.586-0.436 2.31-1.01 3.85-1.67 4.62-1.99 2.2-0.919 2.65-1.08 2.96-1.08 0.064 0 0.214 0.0158 0.309 0.0951 0.079 0.0634 0.103 0.151 0.111 0.214-8e-3 0.0475 8e-3 0.19 0 0.301z" fill="#fff" fill-opacity=".5"/>
</svg>
