<svg version="1.1" viewBox="0 0 512 512" xmlns="http://www.w3.org/2000/svg">
  <path d="M469.33 251.47A26.67 26.67 0 0 0 442.67 278.13V426.67A16 16 0 0 1 426.67 442.67H85.33A16 16 0 0 1 69.33 426.67V85.33A16 16 0 0 1 85.33 69.33H340.53A26.67 26.67 0 1 0 340.53 16H85.33A69.6 69.6 0 0 0 16 85.33V426.67A69.6 69.6 0 0 0 85.33 496H426.67A69.6 69.6 0 0 0 496 426.67V278.13A26.67 26.67 0 0 0 469.33 251.47M221.87 229.33A26.67 26.67 0 0 0 183.47 266.13L242.67 328.27A26.67 26.67 0 0 0 261.87 336.53A26.67 26.67 0 0 0 281.07 328.53L461.87 141.87A26.67 26.67 0 1 0 423.47 104.53L262.13 271.47z" />
</svg>
