<svg version="1.1" viewBox="0 0 512 512" xmlns="http://www.w3.org/2000/svg">
  <path d="M212.36 146.91C176.48 146.91 146.91 176.48 146.91 212.36V430.54C146.91 466.43 176.48 496 212.36 496H430.54C466.43 496 496 466.43 496 430.54V212.36C496 176.48 466.43 146.91 430.54 146.91zM212.36 190.54H430.54C443.01 190.54 452.36 199.9 452.36 212.36V430.54C452.36 443.01 443.01 452.36 430.54 452.36H212.36C199.9 452.36 190.54 443.01 190.54 430.54V212.36C190.54 199.9 199.9 190.54 212.36 190.54zM81.45 16C45.55 16 16 45.55 16 81.45V299.63C16 335.54 45.55 365.09 81.45 365.09A21.82 21.82 0 0 0 103.27 343.27A21.82 21.82 0 0 0 81.45 321.45C69.35 321.45 59.64 311.73 59.64 299.63V81.45C59.64 69.35 69.35 59.64 81.45 59.64H299.63C311.73 59.64 321.45 69.35 321.45 81.45A21.82 21.82 0 0 0 343.27 103.27A21.82 21.82 0 0 0 365.09 81.45C365.09 45.55 335.54 16 299.63 16z" />
</svg>
