<svg version="1.1" viewBox="0 0 512 512" xmlns="http://www.w3.org/2000/svg">
  <path d="M365.65 422.04H471.22M418.3 474.85V369.28M330.98 16.01C299.44 16.12 268.58 25.29 242.61 41.57C188 75.81 154.73 143.48 171.32 217.01L36.49 351.89C23.4 364.98 16 382.76 16 401.28V447.31C16 473.87 38.13 496 64.68 496H128.27C154.82 496 176.95 473.87 176.95 447.31V432.41H191.85C218.41 432.41 240.54 410.28 240.54 383.73V368.28C258.06 367.59 274.83 360.78 287.27 348.33L294.98 340.67C368.5 357.26 436.17 324 470.42 269.38C507.63 210.03 507.77 125.21 447.27 64.7C417.02 34.45 380.71 19.39 344.53 16.52C340 16.16 335.48 15.99 330.98 16zM332.54 69.97C334.75 69.98 336.97 70.06 339.19 70.21C362.9 71.89 386.92 82.1 408.41 103.58C451.37 146.55 449.29 199.63 423.85 240.2C398.41 280.77 351.6 305.71 294.15 285.69A27.48 27.48 0 0 0 265.67 292.23L248.45 309.5C245.65 312.3 241.86 313.84 237.89 313.84H234.25C207.7 313.84 185.57 335.97 185.57 362.53V377.43H170.66C144.11 377.43 121.98 399.56 121.98 426.12V441.02H70.98V401.28C70.98 397.31 72.52 393.53 75.33 390.72L219.76 246.32A27.48 27.48 0 0 0 226.3 217.84C206.29 160.39 231.22 113.58 271.8 88.14C290.18 76.61 311.13 69.88 332.53 69.97zM350.82 123.08C330.12 123.08 312.74 140.46 312.74 161.17S330.12 199.26 350.82 199.26S388.91 181.87 388.91 161.17C388.91 140.47 371.53 123.08 350.82 123.08zM350.82 144.28C359.82 144.28 367.71 152.17 367.71 161.17C367.71 170.17 359.82 178.06 350.82 178.06C341.83 178.06 333.93 170.17 333.93 161.17C333.93 152.17 341.83 144.28 350.82 144.28zM350.82 150.57A10.6 10.6 0 0 0 340.23 161.17A10.6 10.6 0 0 0 350.82 171.77A10.6 10.6 0 0 0 361.42 161.17A10.6 10.6 0 0 0 350.82 150.57zM418.31 350.08A19.2 19.2 0 0 0 399.11 369.28V402.84H365.65A19.2 19.2 0 0 0 346.45 422.04A19.2 19.2 0 0 0 365.65 441.24H399.11V474.85A19.2 19.2 0 0 0 418.31 494.05A19.2 19.2 0 0 0 437.51 474.85V441.24H471.22A19.2 19.2 0 0 0 490.42 422.04A19.2 19.2 0 0 0 471.22 402.84H437.51V369.28A19.2 19.2 0 0 0 418.31 350.08z" />
</svg>
