<svg version="1.1" viewBox="0 0 512 512" xmlns="http://www.w3.org/2000/svg">
  <path d="M174.77 495.7A53.96 53.96 0 0 1 142.4 484.67L92.76 447.74A56.84 56.84 0 0 1 81.01 370.52A49.4 49.4 0 0 0 86.52 325.91L85.08 322.07A43.89 43.89 0 0 0 58.22 292.82H54.39A56.12 56.12 0 0 1 18.9 222.31L38.56 159.96A52.28 52.28 0 0 1 65.42 126.15A51.32 51.32 0 0 1 105.71 123.27A46.28 46.28 0 0 0 148.39 116.31L151.51 113.92A46.52 46.52 0 0 0 169.02 77.7V71.95A55.64 55.64 0 0 1 223.94 16.07H285.09A54.2 54.2 0 0 1 323.46 32.14A56.84 56.84 0 0 1 339.77 72.43V79.14A42.21 42.21 0 0 0 356.31 113.44L358.95 115.36A41.73 41.73 0 0 0 397.08 121.59L405.23 118.95A54.2 54.2 0 0 1 474.3 155.16L493.25 215.6A56.6 56.6 0 0 1 458.23 285.86L453.44 287.54A45.32 45.32 0 0 0 423.94 318.24A47.96 47.96 0 0 0 429.93 357.81L436.17 366.92A57.08 57.08 0 0 1 424.18 444.38L375.98 481.55A53.72 53.72 0 0 1 298.76 468.84L295.88 464.76A41.97 41.97 0 0 0 259.91 446.06A43.17 43.17 0 0 0 225.61 464.52L220.1 472.44A53.96 53.96 0 0 1 184.13 495.7A47.96 47.96 0 0 1 174.77 495.7M73.81 246.77A91.85 91.85 0 0 1 130.89 306.73V309.6A95.93 95.93 0 0 1 119.86 396.42A9.11 9.11 0 0 0 119.86 408.65L171.42 447.74A6 6 0 0 0 180.29 446.06L185.81 438.14A90.41 90.41 0 0 1 334.49 438.14L337.37 442.46A7.19 7.19 0 0 0 341.68 445.34A6 6 0 0 0 346.24 444.14L395.64 406.73A8.63 8.63 0 0 0 397.32 394.98L391.08 385.86A95.93 95.93 0 0 1 378.37 303.85A94.01 94.01 0 0 1 438.09 241.26L442.88 239.58A8.15 8.15 0 0 0 447.44 229.03L428.74 169.31A8.39 8.39 0 0 0 423.94 164.76A5.04 5.04 0 0 0 419.38 164.76L411.23 167.39A89.69 89.69 0 0 1 328.97 153.73L328.01 151.57A90.17 90.17 0 0 1 292.28 79.62V72.19A8.87 8.87 0 0 0 289.88 65.95A7.19 7.19 0 0 0 284.85 64.04H223.94A7.43 7.43 0 0 0 216.98 71.95V77.94A93.53 93.53 0 0 1 180.53 152.05L177.41 154.44A93.77 93.77 0 0 1 90.36 168.59A5.28 5.28 0 0 0 87 168.59A6.71 6.71 0 0 0 84.12 172.19L64.22 234.78A8.63 8.63 0 0 0 69.5 245.57zM256.07 339.82A83.93 83.93 0 1 1 340 255.89A83.93 83.93 0 0 1 256.07 339.82M256.07 219.91A35.97 35.97 0 1 0 292.04 255.89A35.97 35.97 0 0 0 256.07 219.91" />
</svg>
