<svg version="1.1" viewBox="0 0 512 512" xmlns="http://www.w3.org/2000/svg">
  <path d="m399.129 273.496c22.1079-21.0975 57.0143-20.6894 78.6229 0.91917s22.0167 56.5151 0.91917 78.6229l-132.389 131.818c-5.20907 5.21063-12.2746 8.13877-19.6424 8.14036h-40.2851c-15.344 0-27.7828-12.4388-27.7828-27.7828v-40.2573c9e-3 -7.37183 2.94732-14.4379 8.16814-19.6424z" fill="#0073e5" stroke-width="25.4831"/>
  <path d="m137.045 15.4143c-66.8513 0-121.045 54.1937-121.045 121.045v216.912c0 66.8513 54.1937 121.045 121.045 121.045h99.8682c1.78381 0 3.23635-1.5035 3.23635-3.3128v-36.925c-3e-3 -16.8975 6.70681-33.1042 18.6536-45.0541l122.93-122.93c19.8872-19.9293 47.9775-29.3651 75.8631-25.4831 8.66425 1.22319 17.4304-4.94371 17.4304-13.7354v-90.5159c0-66.8513-54.1937-121.045-121.045-121.045zm-4.98513 135.771c0-13.6476 11.0636-24.7112 24.7112-24.7112h177.46c13.6476 0 24.7112 11.0636 24.7112 24.7112v22.1742c0.0279 23.0212-28.6677 33.5704-43.5576 16.0129-5.46941-6.45787-12.1909-13.5089-20.6256-13.5089h-8.07233c-9.0984 0-16.4741 7.37571-16.4741 16.4741v84.0181c0 8.96193 7.94054 15.947 14.9585 21.5482 18.3498 14.5428 8.02693 44.0747-15.3869 44.019h-47.9069c-23.2624-1e-3 -33.6362-29.2149-15.5846-43.8872 6.85325-5.56826 14.4973-12.4544 14.4973-21.2846v-84.3807c0-9.0984-7.37571-16.4741-16.4741-16.4741h-8.10529c-8.43477 0-15.1562 7.018-20.6256 13.4759-14.8446 17.6924-43.6858 7.08159-43.5247-16.0129z" clip-rule="evenodd" fill="#c64600" fill-rule="evenodd" stroke-width="25.4831"/>
  <path d="m193.918 140.523c-13.0736 0.01-26.1471 0.0195-39.2207 0.0293-2.39611 0.80565-4.35694 2.56337-5.96841 4.45876-1.57849 1.98331-2.23664 4.50594-2.43462 6.99188-0.35997 3.99233-0.21373 8.00984-0.28506 12.0138 0.0161 4.19558-0.31514 8.44254 0.45625 12.5926 0.32688 2.13452 1.44288 4.20766 3.34286 5.32476 2.44995 1.51631 5.35502 2.59218 8.27056 2.28589 2.66825-0.55452 4.6677-2.58918 6.63699-4.33083 3.64029-3.40632 7.16826-6.94848 11.0615-10.0712 2.74458-2.19045 5.82263-3.95782 9.13562-5.13284 3.43454-1.37054 7.10274-2.11709 10.7988-2.21436 4.2008-0.20843 8.41644-0.15777 12.6147 0.0625 6.77438 0.62639 13.1853 3.82992 18.1122 8.46399 5.29601 5.08783 8.42689 12.3615 8.37842 19.716 0.0284 23.7689-0.0313 47.5389-0.0162 71.3082-0.0284 5.60665 0.0343 11.2181-0.16828 16.8209-0.41474 5.77723-2.33514 11.4826-5.7902 16.1583-2.16774 3.30523-4.89035 6.23665-8.03319 8.63413-2.97141 2.55825-6.41576 4.76917-8.5024 8.17783-2.31941 4.26262-1.62116 10.1426 2.117 13.3881 1.99451 1.87975 4.65403 3.01266 7.39855 3.09246 5.88665 0.30426 11.7869 0.15882 17.6791 0.12407 8.17952-0.15812 16.3611 0.0516 24.5402-0.10271 1.54399-0.0515 2.8765-0.10236 4.42114-0.21629 1.5309-0.11959 3.08628-0.21039 4.62314-0.68268 1.83826-0.49552 3.38964-1.63166 4.79544-2.88948 1.23267-1.10292 1.93703-2.04516 2.46564-3.91802 0.62675-2.22057 0.51726-5.45378-0.4054-7.38341-1.42897-2.98852-4.82902-5.9418-6.76839-7.7659-4.65484-4.06965-8.45751-5.97767-11.7532-11.3208-3.1234-4.95944-4.96535-10.7273-5.20035-16.5894-0.29927-5.71053-0.0762-11.4326-0.0912-17.148 0.11388-21.819-0.0208-43.6387 0.0883-65.4576 0.10697-6.05813 0.76975-12.3737 3.88719-17.7027 1.64766-2.75659 3.68379-5.29802 6.03355-7.48699 3.63711-3.16916 8.1378-5.20656 12.7374-6.54528 5.55298-1.55816 11.4027-1.63966 17.1029-1.01458 4.99676 0.53143 10.0723 1.57729 14.4721 4.10257 2.94064 1.81605 5.54395 4.1173 8.16969 6.3503 2.99377 2.58274 5.76843 5.40187 8.5305 8.22632 1.20914 1.12647 2.42774 2.38818 4.00937 2.95981 2.08313 0.49874 4.26749 0.18619 6.34225-0.19327 2.03101-0.51741 3.56528-2.03915 4.81672-3.63997 0.96788-1.09636 1.58161-2.4632 1.72388-3.91937 0.73497-4.54241 0.62019-9.16571 0.71737-13.7521 0.0147-4.04295 0.10261-8.10151-0.27596-12.1303-0.29954-2.3782-1.08888-4.86362-3.00762-6.43345-1.94871-2.02297-4.68626-3.44015-7.55153-3.23473-46.6688-0.0298-93.3378-0.0297-140.007-6e-3z" fill="#fff8f4" style="paint-order:fill markers stroke"/>
</svg>
