<svg version="2.0" viewBox="0 0 512 512" xmlns="http://www.w3.org/2000/svg">
  <title>IconFont logo</title>
  <metadata>author: itsib, created: 12-12-2024</metadata>
  <path d="m143.39 29.631c-62.625 0-113.39 50.77-113.39 113.39v203.21c0 62.628 50.767 113.4 113.39 113.4h72.171c1.6711 0 3.0318-1.4085 3.0318-3.1035v-34.592c-3e-3 -15.83 18.117-31.013 29.309-42.208l123.74-122.86c18.63-18.67 45.905-31.038 72.027-27.402 8.1165 1.1459 16.328-4.6314 16.328-12.868v-73.568c0-62.628-50.767-113.39-113.39-113.39z" fill="#fff8f4" stroke-width=".94095" style="paint-order:fill markers stroke"/>
  <path d="m399.13 273.5c22.108-21.098 57.014-20.689 78.623 0.91917s22.017 56.515 0.91917 78.623l-132.39 131.82c-5.2091 5.2106-12.275 8.1388-19.642 8.1404h-40.285c-15.344 0-27.783-12.439-27.783-27.783v-40.257c9e-3 -7.3718 2.9473-14.438 8.1681-19.642z" fill="#0073e5" stroke-width="25.483"/>
  <path d="m137.04 15.414c-66.851 0-121.04 54.194-121.04 121.04v216.91c0 66.851 54.194 121.04 121.04 121.04h99.868c1.7838 0 3.2364-1.5035 3.2364-3.3128v-36.925c-3e-3 -16.898 6.7068-33.104 18.654-45.054l122.93-122.93c19.887-19.929 47.978-29.365 75.863-25.483 8.6642 1.2232 17.43-4.9437 17.43-13.735v-90.516c0-66.851-54.194-121.04-121.04-121.04zm-4.9851 135.77c0-13.648 11.064-24.711 24.711-24.711h177.46c13.648 0 24.711 11.064 24.711 24.711v22.174c0.0279 23.021-28.668 33.57-43.558 16.013-5.4694-6.4579-12.191-13.509-20.626-13.509h-8.0723c-9.0984 0-16.474 7.3757-16.474 16.474v84.018c0 8.9619 7.9405 15.947 14.958 21.548 18.35 14.543 8.0269 44.075-15.387 44.019h-47.907c-23.262-1e-3 -33.636-29.215-15.585-43.887 6.8532-5.5683 14.497-12.454 14.497-21.285v-84.381c0-9.0984-7.3757-16.474-16.474-16.474h-8.1053c-8.4348 0-15.156 7.018-20.626 13.476-14.845 17.692-43.686 7.0816-43.525-16.013z" clip-rule="evenodd" fill="#c64600" fill-rule="evenodd" stroke-width="25.483"/>
</svg>
