<svg version="1.1" viewBox="0 0 512 512" xmlns="http://www.w3.org/2000/svg">
  <path d="m137.011 15.9c-66.5561 0-120.511 53.9544-120.511 120.511v215.954c0 66.5562 53.9544 120.511 120.511 120.511h99.4273c1.77593 0 3.22207-1.49685 3.22207-3.29817v-36.762c-3e-3 -16.8229 6.67718-32.958 18.5712-44.8552l122.387-122.387c19.7994-19.8413 47.7657-29.2354 75.5282-25.3706 8.62601 1.21778 17.3534-4.92188 17.3534-13.6748v-90.1163c0-66.5561-53.9544-120.511-120.511-120.511z" fill="#fff8f4" style="paint-order:fill markers stroke"/>
  <path d="m399.129 273.496c22.1079-21.0975 57.0143-20.6894 78.6229 0.91917s22.0167 56.5151 0.91917 78.6229l-132.389 131.818c-5.20907 5.21063-12.2746 8.13877-19.6424 8.14036h-40.2851c-15.344 0-27.7828-12.4388-27.7828-27.7828v-40.2573c9e-3 -7.37183 2.94732-14.4379 8.16814-19.6424z" fill="#0073e5" stroke-width="25.4831"/>
  <path d="m137.045 15.4143c-66.8513 0-121.045 54.1937-121.045 121.045v216.912c0 66.8513 54.1937 121.045 121.045 121.045h99.8682c1.78381 0 3.23635-1.5035 3.23635-3.3128v-36.925c-3e-3 -16.8975 6.70681-33.1042 18.6536-45.0541l122.93-122.93c19.8872-19.9293 47.9775-29.3651 75.8631-25.4831 8.66425 1.22319 17.4304-4.94371 17.4304-13.7354v-90.5159c0-66.8513-54.1937-121.045-121.045-121.045zm-4.98513 135.771c0-13.6476 11.0636-24.7112 24.7112-24.7112h177.46c13.6476 0 24.7112 11.0636 24.7112 24.7112v22.1742c0.0279 23.0212-28.6677 33.5704-43.5576 16.0129-5.46941-6.45787-12.1909-13.5089-20.6256-13.5089h-8.07233c-9.0984 0-16.4741 7.37571-16.4741 16.4741v84.0181c0 8.96193 7.94054 15.947 14.9585 21.5482 18.3498 14.5428 8.02693 44.0747-15.3869 44.019h-47.9069c-23.2624-1e-3 -33.6362-29.2149-15.5846-43.8872 6.85325-5.56826 14.4973-12.4544 14.4973-21.2846v-84.3807c0-9.0984-7.37571-16.4741-16.4741-16.4741h-8.10529c-8.43477 0-15.1562 7.018-20.6256 13.4759-14.8446 17.6924-43.6858 7.08159-43.5247-16.0129z" clip-rule="evenodd" fill="#c64600" fill-rule="evenodd" stroke-width="25.4831"/>
</svg>
