<svg version="2.0" viewBox="0 0 512 512" xmlns="http://www.w3.org/2000/svg">
  <title>IconFont logo</title>
  <metadata>author: itsib, created: 12-12-2024</metadata>

  <style>
    .rect {
      fill: #c64600;
      fill-rule: evenodd;
      clip-rule: evenodd;
    }
    .char {
      fill: white;
      fill-rule: evenodd;
      stroke-width: 0;
      paint-order: fill markers stroke;
    }
    .pen {
      fill: #0073e5;
    }
  </style>
  <g>
    <path class="pen" d="m399.129 273.496c22.1079-21.0975 57.0143-20.6894 78.6229 0.91917s22.0167 56.5151 0.91917 78.6229l-132.389 131.818c-5.20907 5.21063-12.2746 8.13877-19.6424 8.14036h-40.2851c-15.344 0-27.7828-12.4388-27.7828-27.7828v-40.2573c9e-3 -7.37183 2.94732-14.4379 8.16814-19.6424z" />
    <path class="char" d="m218.277 124.805c-19.1755 0.0363-38.3522-0.0231-57.5266 0.2182-3.42 0.1103-6.86754 0.0215-10.2586 0.53375-9.37967 2.27053-17.2731 10.0754-19.3487 19.54-0.67139 4.53213-0.71069 9.12992-0.82936 13.7022-0.0644 6.47493-0.10851 12.969 0.4984 19.4219 0.43813 3.69606 2.04866 7.18061 4.13672 10.2285 5.49105 7.90755 15.4595 12.5034 25.0416 11.2884 5.01183-0.61832 9.8408-2.75182 13.5873-6.15369 4.90836-4.23155 8.81743-9.59193 14.248-13.2148 2.95815-2.00859 6.56805-2.74669 10.0958-2.77511 3.39611-0.0106 6.82426 0.0407 10.1725 0.66091 2.58716 0.42486 4.71593 2.08719 6.49145 3.92279 1.30633 1.3139 2.96571 2.51349 3.33376 4.45318 0.72263 3.02383 0.73562 6.29091 0.86936 9.29682 0.28093 12.7162 0.1333 25.4368 0.16617 38.1551-0.0296 13.3728 0.0634 26.747-0.15004 40.1186-0.0808 2.17027-0.0401 4.40789-0.44972 6.60722-1.05657 3.32398-3.2443 6.15181-5.52771 8.73339-4.11333 4.54469-9.37948 7.99704-12.936 13.0529-1.43062 2.15809-2.57175 4.51466-3.45523 6.94556-0.82737 2.84972-0.50069 5.85747-0.57877 8.78456-6e-3 2.72009-0.028 5.55985 1.22434 8.05329 1.86787 4.45427 4.76318 8.48928 8.52339 11.5377 3.29718 2.67288 7.2279 4.75015 11.4708 5.32193 6.66679 0.36822 13.3488 0.32889 20.0237 0.40175 11.5243 0.0378 23.0522 0.0873 34.5731-0.23139 1.91794-0.0225 3.84678-0.19474 5.65897-0.86729 3.79429-1.33606 7.48309-3.20872 10.4688-5.93946 5.73759-5.47643 8.96838-13.5323 8.32717-21.4653-0.37368-4.92724-2.12891-9.79913-5.18216-13.7015-2.63575-3.24717-5.94761-5.82565-9.01548-8.63601-3.53814-3.31531-6.9998-6.92008-8.96954-11.4219-0.36228-0.81424-0.97068-1.57121-0.7928-2.51115v-90.1059c1.06218-2.36725 2.17582-4.78305 4.0649-6.61984 2.41352-2.45995 5.67269-4.26929 9.17571-4.36239 1.49989-0.10834 2.83183-0.15323 4.35763-0.1924 4.16932-0.10571 8.62474-0.0969 12.3221 2.10914 1.64123 0.93248 3.11067 2.13195 4.52498 3.37408 0.45627 0.41812 1.15184 1.04062 1.68434 1.56095 4.01503 3.78843 7.62675 8.05462 12.1421 11.2768 3.15685 2.18231 6.96316 3.20304 10.7177 3.75338 5.9368 0.8284 11.9925-0.90463 17.0536-3.98758 6.51176-4.00949 11.2889-10.987 12.1055-18.6484 0.58354-6.87799 0.55861-13.7928 0.44606-20.6897-0.1269-3.57943-0.12969-7.19027-0.75466-10.7264-1.79082-7.88232-7.23938-14.9056-14.6014-18.3223-2.43223-1.13965-5.0454-1.98238-7.75241-2.03233-9.01971-0.4044-18.0527-0.30441-27.079-0.39024-30.7658-0.0884-61.5318-0.0591-92.2977-0.0578z" />
    <path class="rect" d="m137.045 15.4143c-66.8513 0-121.045 54.1937-121.045 121.045v216.912c0 66.8513 54.1937 121.045 121.045 121.045h99.8682c1.78381 0 3.23635-1.5035 3.23635-3.3128v-36.925c-3e-3 -16.8975 6.70681-33.1042 18.6536-45.0541l122.93-122.93c19.8872-19.9293 47.9775-29.3651 75.8631-25.4831 8.66425 1.22319 17.4304-4.94371 17.4304-13.7354v-90.5159c0-66.8513-54.1937-121.045-121.045-121.045zm-4.98513 135.771c0-13.6476 11.0636-24.7112 24.7112-24.7112h177.46c13.6476 0 24.7112 11.0636 24.7112 24.7112v22.1742c0.0279 23.0212-28.6677 33.5704-43.5576 16.0129-5.46941-6.45787-12.1909-13.5089-20.6256-13.5089h-8.07233c-9.0984 0-16.4741 7.37571-16.4741 16.4741v84.0181c0 8.96193 7.94054 15.947 14.9585 21.5482 18.3498 14.5428 8.02693 44.0747-15.3869 44.019h-47.9069c-23.2624-1e-3 -33.6362-29.2149-15.5846-43.8872 6.85325-5.56826 14.4973-12.4544 14.4973-21.2846v-84.3807c0-9.0984-7.37571-16.4741-16.4741-16.4741h-8.10529c-8.43477 0-15.1562 7.018-20.6256 13.4759-14.8446 17.6924-43.6858 7.08159-43.5247-16.0129z" />
  </g>
</svg>
