<svg version="1.1" viewBox="0 0 512 512" xmlns="http://www.w3.org/2000/svg">
    <path d="m399.129 273.496c22.1079-21.0975 57.0143-20.6894 78.6229 0.91917s22.0167 56.5151 0.91917 78.6229l-132.389 131.818c-5.20907 5.21063-12.2746 8.13877-19.6424 8.14036h-40.2851c-15.344 0-27.7828-12.4388-27.7828-27.7828v-40.2573c9e-3 -7.37183 2.94732-14.4379 8.16814-19.6424z" fill="#0073e5" stroke-width="25.4831"/>
    <path d="m137.045 15.4143c-66.8513 0-121.045 54.1937-121.045 121.045v216.912c0 66.8513 54.1937 121.045 121.045 121.045h99.8682c1.78381 0 3.23635-1.5035 3.23635-3.3128v-36.925c-3e-3 -16.8975 6.70681-33.1042 18.6536-45.0541l122.93-122.93c19.8872-19.9293 47.9775-29.3651 75.8631-25.4831 8.66425 1.22319 17.4304-4.94371 17.4304-13.7354v-90.5159c0-66.8513-54.1937-121.045-121.045-121.045zm-4.98513 135.771c0-13.6476 11.0636-24.7112 24.7112-24.7112h177.46c13.6476 0 24.7112 11.0636 24.7112 24.7112v22.1742c0.0279 23.0212-28.6677 33.5704-43.5576 16.0129-5.46941-6.45787-12.1909-13.5089-20.6256-13.5089h-8.07233c-9.0984 0-16.4741 7.37571-16.4741 16.4741v84.0181c0 8.96193 7.94054 15.947 14.9585 21.5482 18.3498 14.5428 8.02693 44.0747-15.3869 44.019h-47.9069c-23.2624-1e-3 -33.6362-29.2149-15.5846-43.8872 6.85325-5.56826 14.4973-12.4544 14.4973-21.2846v-84.3807c0-9.0984-7.37571-16.4741-16.4741-16.4741h-8.10529c-8.43477 0-15.1562 7.018-20.6256 13.4759-14.8446 17.6924-43.6858 7.08159-43.5247-16.0129z" clip-rule="evenodd" fill="#c64600" fill-rule="evenodd" stroke-width="25.4831"/>
    <path d="m233.693 136.502c-26.5189 0.0196-53.0378 0.021-79.5566 0.0508-2.5884 0.59973-4.78937 2.25526-6.73438 3.9961-2.41233 2.25739-4.18395 5.23679-4.71639 8.52091-0.89243 4.59157-0.54362 9.29142-0.67711 13.9381 0.0228 4.74251-0.33557 9.53503 0.48725 14.2324 0.49418 2.7131 1.6926 5.39506 3.90039 7.13868 2.61765 2.09989 5.86728 3.38393 9.18154 3.83221 2.48098 0.33498 5.04713-0.23103 7.13682-1.61542 3.56058-2.22405 6.30748-5.46131 9.43547-8.21421 3.8812-3.62349 7.80703-7.4761 12.8527-9.42104 2.63614-1.08805 5.36189-2.04545 8.22346-2.2851 4.34074-0.4765 8.71921-0.31921 13.0765-0.26339 3.35164 0.0967 6.6777 0.85197 9.70142 2.31302 5.18657 2.35817 9.76099 6.29847 12.3017 11.4558 1.83722 3.56607 2.65403 7.60801 2.5052 11.6079 0.0749 17.3431-0.0406 34.6864-9e-3 52.0297-8e-3 11.1268 0.0451 22.255-0.0752 33.3809-0.20377 5.15845-1.56245 10.3716-4.57355 14.6248-1.87453 2.91228-4.03846 5.68742-6.80214 7.81032-3.35067 2.90744-7.13747 5.42771-9.80828 9.02725-3.49059 5.13494-3.47411 12.4865 0.32016 17.4622 1.62276 2.10295 3.78641 3.80384 6.19636 4.91835 2.95761 1.31338 6.27115 1.32407 9.44847 1.41367 8.51922 0.11535 17.038-0.15834 25.5576-0.0947 6.40229-0.0155 12.8219 0.16829 19.2079-0.37667 3.24386-0.32061 6.56198-1.23048 9.05302-3.43563 2.35526-1.90579 4.73817-4.28244 5.1366-7.43711 0.33832-2.36099 0.17689-4.77715-0.14605-7.1302-0.45274-2.63913-1.98381-4.96059-3.94563-6.73543-3.95071-3.8258-8.43826-7.06351-12.2791-11.0055-3.32398-3.43045-5.55717-7.80469-6.88488-12.3637-1.16096-4.07165-1.07626-8.35126-1.15509-12.546 0.20343-20.278 0.0946-40.5576 0.12643-60.8363 0.0184-5.91095-0.077-11.8253 0.10517-17.7338 0.23103-5.31157 1.14696-10.8801 4.39897-15.2448 1.76574-2.43964 3.71283-4.83614 6.30288-6.44244 4.19058-2.7407 9.06427-4.40256 14.024-5.00677 4.58061-0.49186 9.22131-0.1777 13.7628 0.52299 3.49709 0.60763 7.02824 1.53196 10.0844 3.38774 3.90949 2.73719 7.48522 5.9209 10.9662 9.17558 2.88306 2.76472 5.41642 6.01068 8.90961 8.04814 2.55743 1.21082 5.49121 0.92113 8.21707 0.62888 2.6752-0.37639 5.22802-1.63435 7.02937-3.66846 1.25823-1.34477 2.48723-2.79016 3.26333-4.47018 1.1927-3.38755 1.20056-7.03245 1.41455-10.5769 0.13168-5.62584 0.1873-11.2586 0.0236-16.8836-0.20584-3.9417-1.01189-8.24475-4.09009-11.0064-2.2033-2.2834-5.0087-4.12378-8.20749-4.55266-2.251-0.31821-4.5316-0.0683-6.79609-0.14632-31.9645-0.0138-63.9289-0.0385-95.8934-0.0236z" fill="#fff8f4" fill-rule="evenodd" stroke-width="0" style="paint-order:fill markers stroke"/>
</svg>
